<?xml version="1.0"?>
<svg width="48" height="48" xmlns="http://www.w3.org/2000/svg" xmlns:svg="http://www.w3.org/2000/svg">
 <g>
  <title>Layer 1</title>
  <g id="svg_1">
   <path id="svg_2" fill="#c1c1c1" d="m32.606,20.272l0,0c-2.121,1.201 -4.903,2.513 -8.2,3.487c-0.682,0.173 -1.152,0.083 -1.377,0.008c-3.321,-1.388 -5.635,-2.497 -7.683,-3.667c-0.014,-0.007 -0.022,-0.01 -0.037,-0.018c-1.267,-0.699 -1.28,0 -1.28,0l0,8.098c0,1.105 0.896,2 2,2l15.341,0c1.104,0 2,-0.895 2,-2l0,-7.908c0,-0.462 -0.764,0 -0.764,0z"/>
   <path id="svg_3" fill="#c1c1c1" d="m24,0c-13.255,0 -24,10.745 -24,24c0,13.254 10.745,24 24,24s24,-10.746 24,-24c0,-13.255 -10.745,-24 -24,-24zm13.21,31.424c0,1.104 -0.896,2 -2,2l-22.42,0c-1.104,0 -2,-0.896 -2,-2l0,-14.848c0,-1.104 0.896,-2 2,-2l22.42,0c1.104,0 2,0.896 2,2l0,14.848z"/>
  </g>
 </g>
</svg>