<?xml version="1.0" encoding="UTF-8"?>
<!-- Generator: Adobe Illustrator 19.2.1, SVG Export Plug-In . SVG Version: 6.00 Build 0)  -->
<svg version="1.1" id="Calque_1" xmlns="http://www.w3.org/2000/svg" xmlns:xlink="http://www.w3.org/1999/xlink" x="0px" y="0px" width="207.2px" height="44px" viewBox="0 0 207.2 44" enable-background="new 0 0 207.2 44" xml:space="preserve">
<g>
	<path fill="none" d="M165.7,10.9c-4.1,0-6.3,4.6-6.3,13.1c0,8.5,2.9,13.1,8.3,13.1c4.1,0,6.3-4.6,6.3-13   C174,15.5,171.1,10.9,165.7,10.9z"/>
	<path fill="#585857" d="M75.3,20.8c-4.3-1.7-7.9-3.4-7.9-6c0-2.6,2.3-4,6.8-4c2.2,0,4.3,0.7,7.4,2l1,0.4l1.2-3   c-2.4-0.9-5.3-1.9-9.1-1.9h-1.4c-6.2,0-10.4,3.3-10.4,8.2c0,4.7,4.7,7,8.8,8.7c4.5,1.9,8.9,3.9,8.9,7.2c0,3-2.3,4.6-6.5,4.6   c-2.8,0-5.4-0.9-9.3-2.7l-1-0.4l-1.2,3c2.5,0.9,6,2.5,11,2.5h1.2c6.6,0,11-3.5,11-8.8C85.7,25.3,80,22.8,75.3,20.8z"/>
	<rect x="90.5" y="8.9" fill="#585857" width="5.6" height="30.3"/>
	<path fill="#585857" d="M113.1,25.4c0.8,0,3.4-0.2,4.4-0.2h2.3v10.3l-2.8,1c-0.6,0.2-2.1,0.7-3.2,0.7c-4.5,0-6.8-4.6-6.8-13.2   c0-8.6,2.5-13.2,7.2-13.2c1.2,0,2.5,0.3,3.6,0.8l5.5,2.3l1.2-3.1c-2-1-7.8-2.3-10.1-2.3h-1.2c-7.3,0-12.2,6.2-12.2,15.6   c0,9.3,4.9,15.5,12.2,15.5c0.8,0,2.8-0.2,4.5-1l2.7-1.1l0.6,1.9l4.4-0.2V25.9c0-0.7,0.2-3.1,0.2-3.1H113L113.1,25.4z"/>
	<path fill="#585857" d="M131.4,39.2h5.6v-14h6.3c1,0,3.7,0.2,4.5,0.2l0-2.6h-10.8V11.3h2.4c2.9,0,10.4,0.7,12.4,0.7V8.9h-20.4V39.2   z"/>
	<path fill="#585857" d="M166.7,8.4c-7.9,0-13.1,6.2-13.1,15.5c0,9.4,5.2,15.6,13.1,15.6c7.9,0,13.1-6.2,13.1-15.6   C179.8,14.7,174.5,8.4,166.7,8.4z M167.7,37.1c-5.4,0-8.3-4.6-8.3-13.1c0-8.5,2.3-13.1,6.3-13.1c5.4,0,8.2,4.6,8.2,13.1   C174,32.5,171.8,37.1,167.7,37.1z"/>
	<path fill="#585857" d="M196.9,22.8L207,8.9l-5.1-0.4c0,2.3-2.4,6.9-4.9,10.4l-1.6,2.3l-7.7-12.7l-6.3,0.4L191.8,25l-10.4,14.2   l5.1,0.5v-0.9c0-1.1,3.1-6.6,5.1-9.5l1.7-2.4l7.9,13.2l6-0.9L196.9,22.8z"/>
	<path fill="#345D5F" d="M8.1,41.6c0.1,0.2,0.4,0.3,0.7,0.4L8.1,41.6C8.1,41.5,8.1,41.5,8.1,41.6z"/>
	<polygon fill="#487E81" points="46.1,2.1 46.1,2.1 46.1,2.1  "/>
	<polygon fill="#407173" points="35.4,43.2 35.8,43.5 35.5,43.1  "/>
	<polygon fill="#417274" points="36.6,43.5 35.8,42.6 35.5,43.1 35.8,43.5 36.4,43.8  "/>
	<polygon fill="#417375" points="36.6,43.5 36.9,43.1 36.3,42.4 36.1,42.2 35.8,42.6  "/>
	<polygon fill="#417375" points="37.1,42.8 36.3,42.4 36.9,43.1  "/>
	<polygon fill="#427476" points="36.8,41.1 36.5,41.6 37.5,42.3 37.6,42.1  "/>
	<polygon fill="#427476" points="37.1,40.6 36.8,41.1 37.6,42.1 37.9,41.6  "/>
	<polygon fill="#427577" points="37.9,41.6 38.2,41.3 37.2,40.6 37.1,40.6  "/>
	<polygon fill="#437678" points="37.8,39.8 37.6,40 38.5,40.6  "/>
	<polygon fill="#437678" points="38.1,39.3 37.8,39.8 38.5,40.6 38.6,40.7 38.9,40.3  "/>
	<polygon fill="#447779" points="39.2,39.8 39,39.5 38.3,39 38.1,39.3 38.9,40.3  "/>
	<polygon fill="#44787A" points="39.3,39.7 39,39.5 39.2,39.8  "/>
	<polygon fill="#44787A" points="38.8,38.4 39,38.6 38.8,38.3  "/>
	<polygon fill="#44787A" points="39.2,37.9 38.8,38.3 39,38.6 39.7,39.1 39.9,38.9  "/>
	<polygon fill="#45797B" points="40.3,38.4 39.5,37.5 39.2,37.9 39.9,38.9  "/>
	<polygon fill="#45797B" points="40.3,38.4 40.5,38.2 39.5,37.4 39.5,37.5  "/>
	<polygon fill="#457A7C" points="40.2,36.6 40,36.9 40.9,37.6 40.9,37.6  "/>
	<polygon fill="#467B7D" points="40.5,36.2 40.2,36.6 40.9,37.6 41.3,37.1  "/>
	<polygon fill="#467B7D" points="41.6,36.7 41.5,36.6 40.7,35.9 40.5,36.2 41.3,37.1  "/>
	<polygon fill="#467C7E" points="41.7,36.7 41.5,36.6 41.6,36.7  "/>
	<path fill="#477D7F" d="M41.5,35c-0.1,0.1-0.2,0.3-0.3,0.4l0.9,0.8c0.1-0.1,0.1-0.2,0.2-0.2L41.5,35z"/>
	<path fill="#477D7F" d="M42.7,35.5l-0.8-0.9c-0.1,0.1-0.2,0.3-0.4,0.4l0.8,0.9C42.4,35.8,42.6,35.6,42.7,35.5z"/>
	<path fill="#487E80" d="M42.7,35.5c0.1-0.1,0.1-0.2,0.2-0.3L42,34.4c0,0-0.1,0.1-0.1,0.1L42.7,35.5z"/>
	<path fill="#487E81" d="M42.6,33.7c-0.1,0.1-0.1,0.1-0.2,0.2l0.9,0.8c0,0,0,0,0.1-0.1L42.6,33.7z"/>
	<path fill="#487E81" d="M44.2,33.8L43.3,33c-0.2,0.2-0.4,0.5-0.6,0.7l0.8,0.9C43.7,34.3,43.9,34.1,44.2,33.8z"/>
	<path fill="#487E81" d="M45.5,32.4l-0.8-0.9c-0.3,0.3-0.6,0.6-0.9,0.9l0.9,0.8C44.9,33,45.2,32.7,45.5,32.4z"/>
	<polygon fill="#487E81" points="45.2,31.1 46,32 46.9,31.2 46.1,30.2  "/>
	<polygon fill="#487E81" points="48.4,30 47.7,29 46.7,29.8 47.5,30.7  "/>
	<path fill="#487E81" d="M49.2,28l-0.9,0.6l0.7,1l0.3-0.2C49.3,29,49.2,28.4,49.2,28z"/>
	<path fill="#407173" d="M32.5,40.9L32.5,40.9L32.5,40.9C32.5,40.8,32.5,40.8,32.5,40.9z"/>
	<polygon fill="#407173" points="33,40.1 32.2,39.1 31.9,39.6 32.9,40.2  "/>
	<polygon fill="#417274" points="33,40.1 33.3,39.6 32.5,38.6 32.2,39.1  "/>
	<polygon fill="#417375" points="33.3,39.6 33.6,39.3 32.6,38.6 32.5,38.6  "/>
	<polygon fill="#417375" points="33.2,37.7 33,38 34,38.7 34,38.7  "/>
	<polygon fill="#427476" points="33.5,37.3 33.2,37.7 34,38.7 34.3,38.2  "/>
	<polygon fill="#427476" points="34.7,37.8 34.5,37.5 33.7,37 33.5,37.3 34.3,38.2  "/>
	<polygon fill="#427577" points="34.7,37.7 34.5,37.5 34.7,37.8  "/>
	<polygon fill="#437678" points="34.5,36 34.2,36.4 35.1,37.1 35.3,36.9  "/>
	<polygon fill="#437678" points="34.9,35.5 34.5,36 35.3,36.9 35.7,36.5  "/>
	<polygon fill="#447779" points="35.7,36.5 35.9,36.2 34.9,35.5 34.9,35.5  "/>
	<polygon fill="#44787A" points="35.6,34.6 35.4,34.9 36.3,35.6 36.4,35.6  "/>
	<polygon fill="#44787A" points="35.9,34.2 35.6,34.6 36.4,35.6 36.7,35.1  "/>
	<polygon fill="#45797B" points="36.7,35.1 37.1,34.7 36.1,33.9 35.9,34.2  "/>
	<path fill="#45797B" d="M36.6,33.4l0.4,0.4L36.6,33.4C36.7,33.3,36.6,33.4,36.6,33.4z"/>
	<path fill="#457A7C" d="M37,32.9c-0.1,0.1-0.2,0.3-0.4,0.4l0.4,0.4l0.5,0.4c0.1-0.1,0.2-0.2,0.3-0.3L37,32.9z"/>
	<path fill="#467B7D" d="M38.2,33.4l-0.8-0.9l0,0c-0.1,0.1-0.2,0.3-0.4,0.4l0.8,0.9C37.9,33.7,38.1,33.5,38.2,33.4z"/>
	<path fill="#467B7D" d="M38.3,33.2l-0.9-0.8l0.8,0.9C38.2,33.3,38.3,33.3,38.3,33.2z"/>
	<polygon fill="#467C7E" points="38.1,31.6 37.9,31.9 38.8,32.7 38.9,32.6  "/>
	<polygon fill="#477D7F" points="38.5,31.2 38.1,31.6 38.9,32.6 39.3,32.2  "/>
	<polygon fill="#477D7F" points="39.3,32.2 39.6,31.8 38.7,31 38.5,31.2  "/>
	<polygon fill="#487E80" points="39.2,30.5 39.8,31 39.2,30.4  "/>
	<polygon fill="#487E81" points="39.6,30 39.2,30.4 39.8,31 40.1,31.3 40.4,30.9  "/>
	<polygon fill="#487E81" points="40.9,30.4 40,29.6 39.6,30 40.4,30.9  "/>
	<polygon fill="#487E81" points="42.2,29.1 41.4,28.2 40.5,29.1 41.4,29.9  "/>
	<polygon fill="#487E81" points="41.9,27.7 42.7,28.6 43.6,27.8 42.9,26.9  "/>
	<polygon fill="#487E81" points="43.4,26.4 44.2,27.4 45.1,26.7 44.4,25.7  "/>
	<path fill="#487E81" d="M45.7,24.8c-0.2,0.1-0.4,0.3-0.7,0.4l0.7,1c0.3-0.2,0.7-0.4,1-0.6l-0.2-0.4C46.2,25.1,45.9,25,45.7,24.8z"/>
	<path fill="#417274" d="M29.4,34.8l-0.2,0.3c0.2,0.3,0.5,0.6,0.8,1l0.3-0.4L29.4,34.8z"/>
	<polygon fill="#417375" points="30.2,35.8 30.4,35.5 29.4,34.8 29.4,34.8  "/>
	<polygon fill="#417375" points="30.1,33.9 29.9,34.2 30.8,34.9 30.9,34.9  "/>
	<polygon fill="#427476" points="31.2,34.5 30.4,33.5 30.1,33.9 30.9,34.9  "/>
	<polygon fill="#427476" points="31.2,34.5 31.6,34 31.4,33.8 30.6,33.2 30.4,33.5  "/>
	<polygon fill="#427577" points="31.6,34 31.4,33.8 31.6,34  "/>
	<path fill="#437678" d="M32,33.4c0.1-0.1,0.1-0.1,0.2-0.2l-0.8-0.9c-0.1,0.1-0.2,0.3-0.3,0.4L32,33.4z"/>
	<path fill="#437678" d="M32.2,33.2c0.1-0.1,0.2-0.3,0.4-0.4l-0.8-0.9c-0.1,0.1-0.2,0.3-0.4,0.4L32.2,33.2z"/>
	<path fill="#447779" d="M32.6,32.8c0.1-0.1,0.1-0.2,0.2-0.3l-0.9-0.8c0,0-0.1,0.1-0.1,0.1L32.6,32.8z"/>
	<polygon fill="#44787A" points="32.5,30.9 32.3,31.1 33.3,31.9 33.3,31.9  "/>
	<polygon fill="#44787A" points="33.7,31.4 32.9,30.5 32.5,30.9 33.3,31.9  "/>
	<polygon fill="#45797B" points="33.7,31.4 34,31 33.1,30.2 32.9,30.5  "/>
	<polygon fill="#457A7C" points="34,29.3 33.6,29.7 34.5,30.5 34.8,30.2  "/>
	<polygon fill="#467B7D" points="35.1,29.8 34.3,28.9 34,29.3 34.8,30.2  "/>
	<polygon fill="#467B7D" points="35.1,29.8 35.3,29.6 34.4,28.8 34.3,28.9  "/>
	<polygon fill="#467C7E" points="35.2,28 34.9,28.2 35.8,29 35.9,28.9  "/>
	<polygon fill="#477D7F" points="36.3,28.5 35.5,27.6 35.2,28 35.9,28.9  "/>
	<polygon fill="#477D7F" points="36.3,28.5 36.6,28.2 35.8,27.3 35.5,27.6  "/>
	<polygon fill="#487E81" points="36.7,26.4 36.3,26.8 37.1,27.6 37.4,27.4  "/>
	<polygon fill="#487E81" points="36.7,26.4 37.4,27.4 38,26.8 37.1,25.9  "/>
	<path fill="#487E81" d="M37.7,25.4l0.8,0.9c0.3-0.3,0.6-0.5,0.9-0.8l-0.8-0.9C38.3,24.9,38,25.1,37.7,25.4z"/>
	<path fill="#487E81" d="M40.8,24.3l-0.8-0.9c-0.3,0.3-0.7,0.5-1,0.8l0.8,0.9C40.2,24.7,40.5,24.5,40.8,24.3z"/>
	<path fill="#487E81" d="M41.3,22.9c-0.2-0.1-0.4-0.1-0.6-0.2c0,0-0.1,0.1-0.1,0.1l0.7,1c0.3-0.2,0.5-0.4,0.8-0.6   C41.9,23.1,41.7,23,41.3,22.9z"/>
	<path fill="#487E81" d="M43.7,21.7l-0.4-0.6c-0.4,0.2-0.7,0.4-1,0.7l0,0C42.8,21.7,43.3,21.7,43.7,21.7z"/>
	<path fill="#487E81" d="M44,20.7l0.6,1c0,0,0,0,0.1,0c0.3-0.2,0.6-0.4,1-0.5L45,20.1C44.7,20.3,44.3,20.5,44,20.7z"/>
	<path fill="#487E81" d="M45.7,19.8l0.5,1.1c0.4-0.2,0.7-0.4,1.1-0.5l-0.5-1.1C46.4,19.4,46.1,19.6,45.7,19.8z"/>
	<path fill="#487E81" d="M48.7,18.5c-0.4,0.1-0.8,0.3-1.2,0.5l0.5,1.1c0.4-0.1,0.7-0.3,1.1-0.4L48.7,18.5z"/>
	<path fill="#487E81" d="M49.4,18.3l0.4,1.1c0,0,0.1,0,0.1,0c0-0.1,0.1-0.1,0.2-0.2c0.3-0.2,0.4-0.9,0.4-1.3v0   C50.1,18,49.7,18.1,49.4,18.3z"/>
	<polygon fill="#376264" points="17.8,43.5 18.2,43.7 17.9,43.4  "/>
	<path fill="#386365" d="M18.2,42.9l-0.3,0.5l0.3,0.4l0,0c0.2-0.1,0.3-0.2,0.5-0.2L18.2,42.9z"/>
	<path fill="#386365" d="M19.2,43.3l-0.5-0.6l-0.2-0.1l-0.2,0.4l0.5,0.6c0,0,0,0,0,0C18.9,43.4,19,43.3,19.2,43.3z"/>
	<path fill="#386466" d="M19.4,43.1L19.4,43.1l-0.8-0.5l0.5,0.6C19.3,43.2,19.4,43.2,19.4,43.1z"/>
	<polygon fill="#396566" points="19.1,41.4 18.8,41.8 19.8,42.5 19.9,42.4  "/>
	<polygon fill="#396567" points="19.4,40.9 19.1,41.4 19.9,42.4 20.2,41.9  "/>
	<polygon fill="#396668" points="20.2,41.9 20.5,41.5 19.4,40.8 19.4,40.9  "/>
	<polygon fill="#3A6668" points="20.1,39.9 19.8,40.2 20.9,40.8 20.9,40.8  "/>
	<polygon fill="#3A6769" points="20.4,39.4 20.1,39.9 20.9,40.8 21.2,40.3  "/>
	<polygon fill="#3A6869" points="21.5,39.9 21.4,39.8 20.5,39.2 20.4,39.4 21.2,40.3  "/>
	<polygon fill="#3B686A" points="21.5,39.8 21.4,39.8 21.5,39.9  "/>
	<polygon fill="#3B686A" points="20.9,38.6 21.2,38.8 21,38.5  "/>
	<polygon fill="#3B696B" points="21.3,38 21,38.5 21.2,38.8 21.9,39.2 22.1,39  "/>
	<polygon fill="#3C696B" points="21.7,37.6 21.6,37.6 21.3,38 22.1,39 22.4,38.5  "/>
	<polygon fill="#3C6A6C" points="22.4,38.5 22.6,38.2 21.7,37.6  "/>
	<polygon fill="#3C6B6C" points="22.2,36.6 22,37 23,37.6 23,37.6  "/>
	<polygon fill="#3D6B6D" points="22.6,36.1 22.2,36.6 23,37.6 23.4,37.1  "/>
	<polygon fill="#3D6C6E" points="23.7,36.7 22.7,36 22.6,36.1 23.4,37.1  "/>
	<polygon fill="#3D6C6E" points="23.1,35.4 23.7,35.8 23.2,35.2  "/>
	<polygon fill="#3E6D6F" points="23.6,34.7 23.2,35.2 23.7,35.8 24.1,36.1 24.4,35.7  "/>
	<polygon fill="#3E6E70" points="24.7,35.2 24.2,34.7 23.8,34.4 23.6,34.7 24.4,35.7  "/>
	<polygon fill="#3E6E70" points="24.8,35.1 24.2,34.7 24.7,35.2  "/>
	<polygon fill="#3F6F71" points="24.6,33.4 24.3,33.8 25.2,34.5 25.4,34.3  "/>
	<polygon fill="#3F7071" points="24.9,32.9 24.6,33.4 25.4,34.3 25.7,33.9  "/>
	<path fill="#407072" d="M25.7,33.9l0.1-0.1c0-0.1,0.1-0.2,0.1-0.3L25,32.8l-0.1,0.1L25.7,33.9z"/>
	<path fill="#407173" d="M26.2,32.7L25.6,32l-0.2,0.2l0.8,0.6C26.2,32.8,26.2,32.8,26.2,32.7z"/>
	<path fill="#407173" d="M26.2,32.7c0.1-0.2,0.2-0.4,0.3-0.6L26,31.6L25.6,32L26.2,32.7z"/>
	<path fill="#417274" d="M26.5,32.2c0.1-0.1,0.1-0.2,0.1-0.2s0-0.1,0.1-0.2l-0.5-0.4L26,31.6L26.5,32.2z"/>
	<polygon fill="#417375" points="26.6,30.7 26.7,30.8 26.7,30.7  "/>
	<polygon fill="#417375" points="27.8,31.2 27,30.3 26.7,30.7 26.7,30.8 27.6,31.5  "/>
	<polygon fill="#427476" points="27.8,31.2 28.2,30.8 27.4,29.8 27,30.3  "/>
	<polygon fill="#427476" points="28.3,30.6 27.4,29.8 27.4,29.8 28.2,30.8  "/>
	<polygon fill="#427577" points="28.1,29 27.9,29.2 28.8,30 28.9,29.9  "/>
	<polygon fill="#437678" points="29.2,29.5 28.5,28.6 28.1,29 28.9,29.9  "/>
	<polygon fill="#437678" points="29.2,29.5 29.6,29.1 28.7,28.3 28.5,28.6  "/>
	<polygon fill="#447779" points="29.2,27.8 29.3,27.9 29.2,27.7  "/>
	<polygon fill="#44787A" points="29.6,27.3 29.2,27.7 29.3,27.9 30.1,28.6 30.3,28.3  "/>
	<polygon fill="#44787A" points="30.3,28.3 30.7,27.8 29.9,26.9 29.6,27.3  "/>
	<polygon fill="#45797B" points="30.7,27.8 30.9,27.7 30,26.9 29.9,26.9  "/>
	<polygon fill="#45797B" points="30.6,26.2 30.5,26.3 31.4,27.1 31.4,27.1  "/>
	<polygon fill="#457A7C" points="30.6,26.2 31.4,27.1 31.8,26.7 31,25.8  "/>
	<polygon fill="#467B7D" points="31.8,26.7 32.2,26.3 32,26.1 31.3,25.4 31,25.8  "/>
	<polygon fill="#467B7D" points="32.2,26.3 32,26.1 32.2,26.3  "/>
	<polygon fill="#467B7D" points="31.8,24.9 31.9,24.9 31.8,24.9  "/>
	<polygon fill="#467C7E" points="32.2,24.5 31.8,24.9 31.9,24.9 32.7,25.8 33,25.4  "/>
	<polygon fill="#477D7F" points="33,25.4 33.4,25.1 32.6,24.1 32.2,24.5  "/>
	<polygon fill="#477D7F" points="33.4,25.1 33.5,24.9 32.7,24 32.6,24.1  "/>
	<path fill="#487E80" d="M33.4,23.3c-0.1,0.1-0.1,0.1-0.2,0.2l0.8,0.9c0,0,0.1-0.1,0.1-0.1L33.4,23.3z"/>
	<path fill="#487E81" d="M33.4,23.3l0.8,0.9c0.1-0.1,0.3-0.3,0.4-0.4L33.8,23C33.7,23.1,33.5,23.2,33.4,23.3z"/>
	<path fill="#487E81" d="M34.6,23.9c0.1-0.1,0.2-0.2,0.3-0.3l-0.8-0.9c-0.1,0.1-0.2,0.2-0.3,0.3L34.6,23.9z"/>
	<polygon fill="#487E81" points="34.6,22.2 35.4,23.1 36.3,22.3 35.5,21.4  "/>
	<polygon fill="#487E81" points="37.8,21.1 37,20.1 36.1,20.9 36.9,21.8  "/>
	<polygon fill="#487E81" points="39.3,19.9 38.6,19 37.6,19.7 38.4,20.6  "/>
	<polygon fill="#487E81" points="40.9,18.9 40.3,17.9 39.3,18.5 39.9,19.6  "/>
	<polygon fill="#487E81" points="40.9,17.5 41.5,18.6 42.6,18 42,16.9  "/>
	<polygon fill="#487E81" points="42.7,16.6 43.2,17.7 44.3,17.2 43.8,16.1  "/>
	<polygon fill="#487E81" points="44.5,15.8 44.9,16.9 46,16.5 45.6,15.4  "/>
	<polygon fill="#487E81" points="47.5,14.8 46.3,15.1 46.7,16.3 47.8,15.9  "/>
	<polygon fill="#487E81" points="48.2,14.5 48.5,15.7 49.7,15.5 49.4,14.3  "/>
	<path fill="#487E81" d="M50.1,14.1l0.2,1.2l0.1,0c0-0.2,0-0.7,0-1.2L50.1,14.1z"/>
	<path fill="#345E5F" d="M12,43.9L12,43.9c0,0.1,0.1,0.1,0.2,0.1l0,0L12,43.9z"/>
	<polygon fill="#355E60" points="12.6,42.9 12.3,43.2 13.4,43.8  "/>
	<polygon fill="#355F60" points="13.7,43.3 12.9,42.4 12.6,42.9 13.4,43.8 13.4,43.8  "/>
	<polygon fill="#355F61" points="13.7,43.3 14,42.9 13.9,42.7 13,42.2 12.9,42.4  "/>
	<polygon fill="#366062" points="14,42.8 13.9,42.7 14,42.9  "/>
	<polygon fill="#366062" points="13.3,41.6 13.8,41.8 13.4,41.4  "/>
	<polygon fill="#366062" points="13.7,40.9 13.4,41.4 13.8,41.8 14.4,42.2 14.5,41.9  "/>
	<polygon fill="#366163" points="14.8,41.4 14.3,40.7 14,40.5 13.7,40.9 14.5,41.9  "/>
	<polygon fill="#376263" points="14.8,41.4 15,41.2 14.3,40.7  "/>
	<polygon fill="#376263" points="14.3,39.9 14.4,39.9 14.3,39.9  "/>
	<polygon fill="#376264" points="15.5,40.4 14.7,39.4 14.3,39.9 14.4,39.9 15.4,40.5  "/>
	<polygon fill="#386365" points="15.5,40.4 15.8,39.9 15,38.9 14.7,39.4  "/>
	<polygon fill="#386365" points="15.8,39.9 16,39.5 15,38.9 15,38.9  "/>
	<polygon fill="#386466" points="15.6,37.9 15.4,38.3 16.4,38.9 16.4,38.9  "/>
	<polygon fill="#396566" points="15.9,37.5 15.6,37.9 16.4,38.9 16.7,38.4  "/>
	<polygon fill="#396567" points="17,38 16.9,37.8 16.1,37.3 15.9,37.5 16.7,38.4  "/>
	<polygon fill="#396668" points="17.1,37.9 16.9,37.8 17,38  "/>
	<polygon fill="#396668" points="16.5,36.6 16.8,36.9 16.5,36.5  "/>
	<polygon fill="#3A6668" points="16.8,36.1 16.5,36.5 16.8,36.9 17.5,37.3 17.6,37.1  "/>
	<polygon fill="#3A6769" points="17.2,35.7 17.1,35.6 16.8,36.1 17.6,37.1 18,36.6  "/>
	<polygon fill="#3A6869" points="18,36.6 18.1,36.3 17.2,35.7  "/>
	<polygon fill="#3B686A" points="17.8,34.7 17.5,35 18.5,35.7 18.6,35.6  "/>
	<polygon fill="#3B696B" points="18.1,34.2 17.8,34.7 18.6,35.6 18.9,35.2  "/>
	<polygon fill="#3C696B" points="19.2,34.8 18.3,34.1 18.1,34.2 18.9,35.2  "/>
	<polygon fill="#3C6A6C" points="18.7,33.5 19.3,33.9 18.8,33.3  "/>
	<polygon fill="#3C6B6C" points="19.1,32.8 18.8,33.3 19.3,33.9 19.7,34.2 19.9,33.8  "/>
	<polygon fill="#3D6B6D" points="19.9,33.8 20.3,33.4 19.8,32.8 19.4,32.5 19.1,32.8  "/>
	<polygon fill="#3D6C6E" points="20.4,33.2 19.8,32.8 20.3,33.4  "/>
	<polygon fill="#3D6C6E" points="20.1,31.5 19.8,31.9 20.8,32.6 20.9,32.5  "/>
	<polygon fill="#3E6D6F" points="20.5,31.1 20.1,31.5 20.9,32.5 21.2,32  "/>
	<polygon fill="#3E6E70" points="21.2,32 21.5,31.7 20.6,30.9 20.5,31.1  "/>
	<polygon fill="#3E6E70" points="21.2,30.2 21,30.4 22,31.1 22,31.1  "/>
	<polygon fill="#3F6F71" points="21.5,29.7 21.2,30.2 22,31.1 22.3,30.7  "/>
	<polygon fill="#3F7071" points="22.7,30.2 22.4,29.9 21.8,29.4 21.5,29.7 22.3,30.7  "/>
	<polygon fill="#407072" points="22.7,30.2 22.4,29.9 22.7,30.2  "/>
	<polygon fill="#407072" points="22.2,28.8 22.3,28.9 22.2,28.8  "/>
	<polygon fill="#407173" points="22.6,28.4 22.2,28.8 22.3,28.9 23.2,29.6 23.4,29.3  "/>
	<polygon fill="#407173" points="23.8,28.9 23,28 22.6,28.4 23.4,29.3  "/>
	<polygon fill="#417274" points="23.8,28.9 23.9,28.7 23,27.9 23,28  "/>
	<polygon fill="#417375" points="23.7,27.2 23.5,27.4 24.4,28.1 24.4,28.1  "/>
	<polygon fill="#417375" points="24,26.7 23.7,27.2 24.4,28.1 24.8,27.7  "/>
	<polygon fill="#427476" points="24.8,27.7 25.2,27.3 25.1,27.1 24.3,26.4 24,26.7  "/>
	<polygon fill="#427476" points="25.2,27.2 25.1,27.1 25.2,27.3  "/>
	<polygon fill="#427577" points="25.1,25.5 24.8,25.9 25.7,26.7 25.9,26.4  "/>
	<polygon fill="#437678" points="25.9,26.4 26.3,26 25.5,25.1 25.1,25.5  "/>
	<polygon fill="#437678" points="26.3,26 26.5,25.8 25.6,25 25.5,25.1  "/>
	<polygon fill="#447779" points="26.3,24.2 26.1,24.5 27,25.3 27.1,25.2  "/>
	<polygon fill="#44787A" points="26.7,23.8 26.3,24.2 27.1,25.2 27.5,24.8  "/>
	<polygon fill="#44787A" points="27.5,24.8 27.8,24.4 26.9,23.6 26.7,23.8  "/>
	<polygon fill="#45797B" points="27.4,23.1 27.6,23.2 27.4,23  "/>
	<polygon fill="#45797B" points="27.8,22.6 27.4,23 27.6,23.2 28.3,23.9 28.6,23.6  "/>
	<polygon fill="#457A7C" points="28.6,23.6 29,23.2 28.2,22.2 27.8,22.6  "/>
	<polygon fill="#467B7D" points="29.1,23 28.3,22.2 28.2,22.2 29,23.2  "/>
	<polygon fill="#467B7D" points="29,21.5 28.8,21.7 29.6,22.5 29.8,22.4  "/>
	<polygon fill="#467C7E" points="29.4,21.1 29,21.5 29.8,22.4 30.2,22.1  "/>
	<polygon fill="#477D7F" points="29.4,21.1 30.2,22.1 30.5,21.7 29.7,20.8  "/>
	<polygon fill="#477D7F" points="30.2,20.3 30.2,20.4 30.2,20.3  "/>
	<polygon fill="#487E80" points="30.6,20 30.2,20.3 30.2,20.4 31,21.2 31.4,20.9  "/>
	<polygon fill="#487E81" points="31.4,20.9 31.8,20.5 31,19.6 30.6,20  "/>
	<polygon fill="#487E81" points="31.9,20.4 31.1,19.5 31,19.6 31.8,20.5  "/>
	<polygon fill="#487E81" points="33.4,19.2 32.6,18.2 31.7,19 32.5,19.9  "/>
	<polygon fill="#487E81" points="34.8,18 34.1,17 33.1,17.8 33.9,18.7  "/>
	<path fill="#487E81" d="M36.4,16.9l-0.7-1c-0.3,0.2-0.7,0.4-1,0.7l0.7,1C35.7,17.3,36.1,17.1,36.4,16.9z"/>
	<path fill="#487E81" d="M38,15.9l-0.6-1c-0.3,0.2-0.7,0.4-1.1,0.6l0.7,1C37.3,16.2,37.6,16.1,38,15.9z"/>
	<path fill="#487E81" d="M39.6,14.9l-0.5-1.1c-0.4,0.2-0.7,0.4-1.1,0.6l0.6,1.1C38.9,15.3,39.3,15.1,39.6,14.9z"/>
	<path fill="#487E81" d="M39.8,13.5l0.5,1.1c0.3-0.2,0.7-0.3,1.1-0.5L40.9,13C40.5,13.2,40.1,13.3,39.8,13.5z"/>
	<path fill="#487E81" d="M43.1,13.5l-0.4-1.1c-0.4,0.1-0.8,0.3-1.2,0.4l0.4,1.1C42.4,13.7,42.7,13.6,43.1,13.5z"/>
	<path fill="#487E81" d="M44.6,11.7c-0.4,0.1-0.8,0.2-1.2,0.4l0.4,1.1c0.4-0.1,0.7-0.2,1.1-0.3L44.6,11.7z"/>
	<path fill="#487E81" d="M46.5,11.2c-0.4,0.1-0.8,0.2-1.2,0.3l0.3,1.2c0.4-0.1,0.8-0.2,1.2-0.3L46.5,11.2z"/>
	<path fill="#487E81" d="M48.4,10.9c-0.4,0-0.8,0.1-1.2,0.2l0.2,1.2c0.4-0.1,0.8-0.2,1.2-0.2L48.4,10.9z"/>
	<path fill="#487E81" d="M49.2,10.8l0.2,1.2c0.3,0,0.6-0.1,0.9-0.1c0-0.2,0.1-0.4,0.2-0.5c0,0,0,0,0-0.1l-0.1-0.6   C50,10.6,49.6,10.7,49.2,10.8z"/>
	<path fill="#345D5F" d="M9.2,41.6l-0.8-1L8,41.3c0,0.1,0.1,0.1,0.1,0.2l0.8,0.4c0,0,0.1,0,0.1,0L9.2,41.6z"/>
	<polygon fill="#345D5F" points="9.2,41.6 9.5,41 9.3,40.8 8.5,40.3 8.4,40.6  "/>
	<polygon fill="#345E5F" points="9.6,40.9 9.3,40.8 9.5,41  "/>
	<polygon fill="#345E5F" points="9.4,40 9,39.5 8.9,39.7  "/>
	<polygon fill="#355E60" points="9.4,40 9.9,40.3 10.1,40 9.3,39 9,39.5  "/>
	<polygon fill="#355F60" points="10.1,40 10.4,39.5 9.9,38.9 9.5,38.7 9.3,39  "/>
	<polygon fill="#355F61" points="10.6,39.3 9.9,38.9 10.4,39.5  "/>
	<polygon fill="#355F61" points="10,38.1 9.9,38 9.9,38.1  "/>
	<polygon fill="#366062" points="10.9,38.7 11.1,38.5 10.2,37.5 9.9,38 10,38.1  "/>
	<polygon fill="#366062" points="11.1,38.5 11.4,38 10.6,37.1 10.2,37.5  "/>
	<polygon fill="#366163" points="11.4,38 11.6,37.7 10.6,37 10.6,37.1  "/>
	<polygon fill="#376263" points="12,37.1 11.2,36.1 11,36.4  "/>
	<polygon fill="#376264" points="12,37.1 12,37.1 12.3,36.6 11.5,35.6 11.2,36.1  "/>
	<polygon fill="#386365" points="12.3,36.6 12.6,36.1 12.5,36 11.6,35.4 11.5,35.6  "/>
	<polygon fill="#386365" points="12.6,36.1 12.5,36 12.6,36.1  "/>
	<polygon fill="#386365" points="12.4,35 12.1,34.7 12.1,34.8  "/>
	<polygon fill="#386466" points="13,35.5 13.2,35.2 12.4,34.2 12.1,34.7 12.4,35  "/>
	<polygon fill="#396566" points="13.2,35.2 13.6,34.7 12.8,33.9 12.7,33.8 12.4,34.2  "/>
	<polygon fill="#396567" points="13.6,34.7 13.7,34.5 12.8,33.9  "/>
	<polygon fill="#396668" points="13.4,32.8 13.2,33.2 14.1,33.9 14.2,33.8  "/>
	<polygon fill="#3A6668" points="13.4,32.8 14.2,33.8 14.6,33.3 13.8,32.4  "/>
	<polygon fill="#3A6769" points="14.6,33.3 14.8,32.9 13.9,32.2 13.8,32.4  "/>
	<polygon fill="#3A6869" points="14.3,31.6 14.9,32.1 14.4,31.5  "/>
	<polygon fill="#3B686A" points="14.7,31 14.4,31.5 14.9,32.1 15.3,32.3 15.5,32  "/>
	<polygon fill="#3B696B" points="15.5,32 15.9,31.5 15.3,30.9 15,30.7 14.7,31  "/>
	<polygon fill="#3C696B" points="16,31.4 15.3,30.9 15.9,31.5  "/>
	<polygon fill="#3C6A6C" points="15.7,29.7 15.5,30.1 16.4,30.8 16.5,30.7  "/>
	<polygon fill="#3C6B6C" points="16.1,29.3 15.7,29.7 16.5,30.7 16.9,30.2  "/>
	<polygon fill="#3D6B6D" points="16.9,30.2 17.1,29.9 16.2,29.1 16.1,29.3  "/>
	<polygon fill="#3D6C6E" points="16.8,28.4 16.6,28.6 17.6,29.3  "/>
	<polygon fill="#3D6C6E" points="17.1,27.9 16.8,28.4 17.6,29.3 17.6,29.3 17.9,28.9  "/>
	<polygon fill="#3E6D6F" points="18.3,28.4 18,28.1 17.4,27.6 17.1,27.9 17.9,28.9  "/>
	<polygon fill="#3E6E70" points="18.3,28.4 18,28.1 18.3,28.4  "/>
	<polygon fill="#3E6E70" points="18.2,26.6 17.9,27 18.8,27.8 19,27.6  "/>
	<polygon fill="#3F6F71" points="19.4,27.1 18.6,26.2 18.2,26.6 19,27.6  "/>
	<polygon fill="#3F7071" points="19.4,27.1 19.6,26.9 18.6,26.1 18.6,26.2  "/>
	<polygon fill="#407072" points="19.3,25.3 19.1,25.6 20,26.3 20.1,26.3  "/>
	<polygon fill="#407173" points="19.7,24.9 19.3,25.3 20.1,26.3 20.5,25.9  "/>
	<polygon fill="#407173" points="20.8,25.4 19.9,24.6 19.7,24.9 20.5,25.9  "/>
	<polygon fill="#417274" points="20.4,24.1 20.6,24.3 20.4,24.1  "/>
	<polygon fill="#417375" points="20.8,23.7 20.4,24.1 20.6,24.3 21.3,24.9 21.6,24.6  "/>
	<polygon fill="#417375" points="22,24.2 21.2,23.2 20.8,23.7 21.6,24.6  "/>
	<polygon fill="#427476" points="22,24.2 22.1,24 21.2,23.2 21.2,23.2  "/>
	<polygon fill="#427476" points="21.9,22.5 21.7,22.7 22.6,23.5 22.7,23.4  "/>
	<polygon fill="#427577" points="22.3,22.1 21.9,22.5 22.7,23.4 23,23  "/>
	<polygon fill="#437678" points="23,23 23.4,22.6 23.4,22.6 22.6,21.8 22.3,22.1  "/>
	<polygon fill="#437678" points="23.4,22.6 23.4,22.6 23.4,22.6  "/>
	<polygon fill="#437678" points="23.1,21.3 23.1,21.3 23.1,21.2  "/>
	<polygon fill="#447779" points="23.5,20.9 23.1,21.2 23.1,21.3 23.9,22.1 24.2,21.8  "/>
	<polygon fill="#44787A" points="24.2,21.8 24.6,21.4 23.9,20.5 23.5,20.9  "/>
	<polygon fill="#44787A" points="24.6,21.4 24.8,21.3 23.9,20.4 23.9,20.5  "/>
	<polygon fill="#45797B" points="24.4,19.9 25.3,20.8 25.4,20.6 24.7,19.7  "/>
	<polygon fill="#45797B" points="25.1,19.3 24.7,19.7 25.4,20.6 25.8,20.2  "/>
	<path fill="#457A7C" d="M25.8,20.2L26,20c0,0,0,0,0,0c-0.1-0.1-0.1-0.3-0.2-0.4l-0.5-0.5l-0.3,0.2L25.8,20.2z"/>
	<path fill="#467B7D" d="M26.7,18.9c0.1,0.2,0.1,0.3,0.1,0.4l0.1-0.1L26.7,18.9z"/>
	<path fill="#487E81" d="M30.5,16.1l-0.2-0.3c-0.2,0.3-0.3,0.6-0.5,0.9L30.5,16.1z"/>
	<path fill="#487E81" d="M31,15.7c0.3-0.2,0.6-0.5,0.9-0.7l-0.7-1c0,0,0,0,0,0c-0.2,0.3-0.4,0.7-0.6,1.1L31,15.7z"/>
	<path fill="#487E81" d="M31.9,13.6l0.7,1l1-0.7l-0.7-1C32.5,13.1,32.2,13.3,31.9,13.6z"/>
	<polygon fill="#487E81" points="35.1,12.9 34.5,11.8 33.5,12.5 34.1,13.5  "/>
	<polygon fill="#487E81" points="35.2,11.5 35.8,12.5 36.8,12 36.3,10.9  "/>
	<polygon fill="#487E81" points="38.5,11.2 38,10.1 36.9,10.6 37.4,11.7  "/>
	<polygon fill="#487E81" points="40.3,10.5 39.9,9.4 38.7,9.8 39.2,10.9  "/>
	<polygon fill="#487E81" points="42.1,9.9 41.8,8.8 40.6,9.1 41,10.3  "/>
	<polygon fill="#487E81" points="42.8,9.8 43.9,9.5 43.7,8.3 42.5,8.6  "/>
	<polygon fill="#487E81" points="44.6,9.3 45.8,9.1 45.6,8 44.4,8.2  "/>
	<polygon fill="#487E81" points="46.3,7.8 46.5,9 47.7,8.9 47.6,7.7  "/>
	<polygon fill="#487E81" points="48.3,7.7 48.4,8.9 49.6,8.8 49.5,7.6  "/>
	<path fill="#487E81" d="M50.3,7.6l0,1.2l0.5,0c0.1-0.2,0.1-0.4,0.3-0.5c0.1-0.1,0.3-0.3,0.4-0.5l0-0.2L50.3,7.6L50.3,7.6z"/>
	<path fill="#345E5F" d="M6.6,37l0.1-0.2l-0.3-0.4c0,0.2,0,0.3,0,0.5L6.6,37z"/>
	<path fill="#355E60" d="M7,36.3l-0.7-0.9c0.1,0.3,0.1,0.7,0.1,1l0.3,0.4L7,36.3z"/>
	<path fill="#355F60" d="M7,36.3L7.2,36l-1-0.6c0,0,0,0.1,0,0.1L7,36.3z"/>
	<polygon fill="#355F61" points="7.6,35.4 7.6,35.3 6.8,34.3 6.6,34.7  "/>
	<polygon fill="#366062" points="7.6,35.3 8,34.8 7.2,33.9 6.8,34.3  "/>
	<polygon fill="#366062" points="8,34.8 8.3,34.4 7.3,33.7 7.2,33.9  "/>
	<polygon fill="#366163" points="8.3,33.5 7.8,32.9 7.7,33.1  "/>
	<polygon fill="#376263" points="8.7,33.8 8.9,33.4 8.1,32.4 7.8,32.9 8.3,33.5  "/>
	<polygon fill="#376264" points="8.9,33.4 9.3,32.9 8.8,32.4 8.4,32.1 8.1,32.4  "/>
	<polygon fill="#386365" points="9.4,32.8 8.8,32.4 9.3,32.9  "/>
	<polygon fill="#386365" points="8.8,31.5 9.8,32.2 9.9,32 9.1,31  "/>
	<polygon fill="#386466" points="9.9,32 10.2,31.6 9.4,30.6 9.1,31  "/>
	<polygon fill="#396566" points="10.2,31.6 10.5,31.2 9.5,30.5 9.4,30.6  "/>
	<polygon fill="#396567" points="10.1,29.7 9.9,29.9 10.9,30.6  "/>
	<polygon fill="#396668" points="10.1,29.7 10.9,30.6 10.9,30.6 11.2,30.2 10.4,29.2  "/>
	<polygon fill="#3A6668" points="11.2,30.2 11.6,29.7 11.3,29.4 10.7,28.9 10.4,29.2  "/>
	<polygon fill="#3A6769" points="11.6,29.7 11.3,29.4 11.6,29.7  "/>
	<polygon fill="#3A6769" points="11.3,28.5 11.1,28.3 11.1,28.4  "/>
	<polygon fill="#3A6869" points="12.1,29.1 12.3,28.8 11.5,27.9 11.1,28.3 11.3,28.5  "/>
	<polygon fill="#3B686A" points="12.3,28.8 12.6,28.4 11.8,27.4 11.5,27.9  "/>
	<polygon fill="#3B696B" points="12.6,28.4 12.8,28.2 11.9,27.4 11.8,27.4  "/>
	<polygon fill="#3C696B" points="13.3,27.6 13.3,27.6 12.5,26.6 12.3,26.8  "/>
	<polygon fill="#3C6A6C" points="13.3,27.6 13.6,27.1 12.8,26.2 12.5,26.6  "/>
	<polygon fill="#3C6B6C" points="13.6,27.1 14,26.7 13.8,26.5 13.1,25.9 12.8,26.2  "/>
	<polygon fill="#3D6B6D" points="14,26.7 13.8,26.5 14,26.7  "/>
	<polygon fill="#3D6B6D" points="13.9,25.6 13.6,25.3 13.5,25.3  "/>
	<polygon fill="#3D6C6E" points="14.5,26.1 14.7,25.8 14,24.8 13.6,25.3 13.9,25.6  "/>
	<polygon fill="#3D6C6E" points="14.7,25.8 15.1,25.4 14.3,24.4 14,24.8  "/>
	<polygon fill="#3E6D6F" points="15.2,25.2 14.3,24.4 14.3,24.4 15.1,25.4  "/>
	<polygon fill="#3E6E70" points="15.1,23.6 14.8,23.8 15.7,24.6 15.8,24.5  "/>
	<polygon fill="#3E6E70" points="16.2,24.1 15.4,23.1 15.1,23.6 15.8,24.5  "/>
	<polygon fill="#3F6F71" points="16.2,24.1 16.5,23.7 15.6,22.9 15.4,23.1  "/>
	<polygon fill="#3F7071" points="16.1,22.4 16.2,22.5 16.1,22.4  "/>
	<polygon fill="#407072" points="16.5,22 16.1,22.4 16.2,22.5 17,23.2 17.3,22.9  "/>
	<polygon fill="#407173" points="17.6,22.5 16.8,21.6 16.5,22 17.3,22.9  "/>
	<polygon fill="#407173" points="17.6,22.5 17.8,22.3 16.9,21.5 16.8,21.6  "/>
	<polygon fill="#417274" points="17.6,20.7 17.4,21 18.3,21.8 18.4,21.6  "/>
	<polygon fill="#417375" points="18.8,21.3 18,20.3 17.6,20.7 18.4,21.6  "/>
	<polygon fill="#417375" points="18.8,21.3 19.1,20.9 18.2,20.1 18,20.3  "/>
	<polygon fill="#427476" points="18.7,19.6 19.5,20.3 18.8,19.5  "/>
	<polygon fill="#427476" points="19.2,19.1 18.8,19.5 19.5,20.3 19.6,20.4 20,20  "/>
	<polygon fill="#427577" points="20,20 20.4,19.6 19.6,18.7 19.2,19.1  "/>
	<polygon fill="#437678" points="20.5,19.6 19.6,18.7 19.6,18.7 20.4,19.6  "/>
	<polygon fill="#437678" points="20.4,18 20.1,18.2 21,19.1 21.1,18.9  "/>
	<polygon fill="#447779" points="20.8,17.6 20.4,18 21.1,18.9 21.5,18.5  "/>
	<polygon fill="#44787A" points="20.8,17.6 21.5,18.5 21.8,18.2 21,17.3  "/>
	<polygon fill="#44787A" points="21.5,16.8 21.6,17 21.5,16.8  "/>
	<polygon fill="#45797B" points="21.9,16.5 21.5,16.8 21.6,17 22.4,17.7 22.7,17.4  "/>
	<polygon fill="#45797B" points="23.1,17 22.3,16.1 21.9,16.5 22.7,17.4  "/>
	<polygon fill="#457A7C" points="23.1,17 23.2,16.9 22.4,16 22.3,16.1  "/>
	<polygon fill="#467B7D" points="23,15.5 23.8,16.4 23.9,16.3 23.1,15.4  "/>
	<path fill="#467B7D" d="M23.5,15.1l-0.4,0.4l0.8,0.9l0.2-0.2c-0.2-0.3-0.3-0.6-0.5-0.9L23.5,15.1z"/>
	<path fill="#467C7E" d="M23.6,15L23.6,15l0.1,0.2C23.6,15.1,23.6,15.1,23.6,15z"/>
	<path fill="#487E81" d="M35.8,8.4l-0.2-0.5c-0.2,0.3-0.4,0.5-0.7,0.8L35.8,8.4z"/>
	<path fill="#487E81" d="M37.5,7.7l-0.4-1.1c-0.2,0.1-0.4,0.1-0.5,0.2c-0.2,0.2-0.3,0.3-0.5,0.5l0.3,0.8C36.8,8,37.2,7.8,37.5,7.7z"/>
	<path fill="#487E81" d="M37.8,6.3l0.4,1.2c0.4-0.1,0.8-0.2,1.1-0.3L39,6C38.6,6.1,38.2,6.2,37.8,6.3z"/>
	<path fill="#487E81" d="M39.7,5.8L40,7c0.4-0.1,0.8-0.2,1.2-0.3l-0.3-1.2C40.5,5.6,40.1,5.7,39.7,5.8z"/>
	<path fill="#487E81" d="M41.9,6.6c0.4-0.1,0.8-0.1,1.2-0.2l-0.2-1.2c-0.4,0.1-0.8,0.1-1.2,0.2L41.9,6.6z"/>
	<path fill="#487E81" d="M43.8,6.3c0.4-0.1,0.8-0.1,1.2-0.1l-0.1-1.2C44.4,5,44,5,43.6,5.1L43.8,6.3z"/>
	<path fill="#487E81" d="M45.6,4.9l0.1,1.2C46,6,46.4,6,46.8,6l0-1.2C46.4,4.8,46,4.8,45.6,4.9z"/>
	<path fill="#487E81" d="M47.5,4.8l0,1.2c0.4,0,0.8,0,1.2,0l0-1.2c-0.2,0-0.4,0-0.6,0C47.9,4.8,47.7,4.8,47.5,4.8z"/>
	<path fill="#487E81" d="M50.7,4.9c-0.4,0-0.8,0-1.2-0.1L49.4,6c0.4,0,0.8,0,1.2,0.1L50.7,4.9z"/>
	<path fill="#487E81" d="M51.3,6.2c0.3,0,0.6,0.1,0.9,0.1c0.1-0.1,0.2-0.3,0.3-0.4l0.1-0.7C52.3,5,51.8,5,51.4,5L51.3,6.2z"/>
	<polygon fill="#366062" points="4.6,30 4.6,30 4.7,30  "/>
	<path fill="#366163" d="M5.5,30.6l0.2-0.3l-0.8-0.9c0,0,0,0.1,0,0.1c0,0.1-0.2,0.3-0.2,0.5l0,0L5.5,30.6z"/>
	<path fill="#376263" d="M5.6,30.3L6,29.9l-0.8-1l-0.3,0.4c0,0,0,0.1,0,0.1L5.6,30.3z"/>
	<polygon fill="#376264" points="6,29.9 6.2,29.6 5.2,28.9 5.2,28.9  "/>
	<polygon fill="#386365" points="5.9,28 5.6,28.3 6.6,29 6.7,29  "/>
	<polygon fill="#386365" points="6.7,29 7,28.5 6.2,27.5 5.9,28  "/>
	<polygon fill="#386466" points="7,28.5 7.3,28.1 6.3,27.3 6.2,27.5  "/>
	<polygon fill="#396566" points="6.8,26.8 7,26.9 6.8,26.7  "/>
	<polygon fill="#396567" points="7.2,26.3 6.8,26.7 7,26.9 7.7,27.5 8,27.2  "/>
	<polygon fill="#396668" points="7.2,26.3 8,27.2 8.3,26.8 7.5,25.8  "/>
	<polygon fill="#3A6668" points="8.3,26.8 8.5,26.6 7.5,25.8 7.5,25.8  "/>
	<path fill="#3A6769" d="M8.9,26L9,25.9L8.3,25c0,0-0.1,0-0.1,0L8,25.2L8.9,26z"/>
	<path fill="#3A6869" d="M9,25.9l0.4-0.4l-0.6-0.7c-0.2,0.1-0.3,0.2-0.5,0.2L9,25.9z"/>
	<path fill="#3B686A" d="M9.4,25.4l0.3-0.4l-0.6-0.5c-0.1,0-0.2,0.1-0.3,0.1L9.4,25.4z"/>
	<polygon fill="#3B696B" points="9.9,24.3 9.9,24.3 9.9,24.3  "/>
	<path fill="#3C696B" d="M10.2,24.5l0.3-0.4L10.4,24c-0.2,0.1-0.3,0.2-0.5,0.3l0,0L10.2,24.5z"/>
	<path fill="#3C6A6C" d="M10.5,24.1l0.3-0.3c-0.1,0.1-0.2,0.1-0.4,0.2L10.5,24.1z"/>
	<path fill="#3D6C6E" d="M11.3,21.7l-0.2-0.2L11,21.7C11.1,21.7,11.2,21.7,11.3,21.7z"/>
	<path fill="#3D6C6E" d="M11.7,21.7l-0.4-0.4l-0.2,0.2l0.2,0.2C11.4,21.7,11.6,21.7,11.7,21.7z"/>
	<polygon fill="#3E6D6F" points="12.2,21.2 11.8,20.7 11.8,20.8  "/>
	<polygon fill="#3E6E70" points="12.7,21.6 13,21.3 12.2,20.3 11.8,20.7 12.2,21.2  "/>
	<polygon fill="#3E6E70" points="13,21.3 13.4,20.8 12.6,19.9 12.2,20.3  "/>
	<polygon fill="#3F6F71" points="13.5,20.7 12.6,19.9 12.6,19.9 13.4,20.8  "/>
	<polygon fill="#3F7071" points="13.4,19.1 13.1,19.4 14,20.2 14.2,20  "/>
	<polygon fill="#407072" points="13.4,19.1 14.2,20 14.5,19.6 13.8,18.7  "/>
	<polygon fill="#407173" points="14.5,19.6 14.8,19.3 13.9,18.5 13.8,18.7  "/>
	<polygon fill="#407173" points="14.4,18 15.1,18.6 14.5,17.9  "/>
	<polygon fill="#417274" points="14.9,17.5 14.5,17.9 15.1,18.6 15.3,18.8 15.7,18.4  "/>
	<polygon fill="#417375" points="15.7,18.4 16.1,18 15.3,17.1 14.9,17.5  "/>
	<polygon fill="#417375" points="16.2,18 15.3,17.1 15.3,17.1 16.1,18  "/>
	<polygon fill="#427476" points="16.1,16.3 15.8,16.6 16.7,17.4 16.9,17.3  "/>
	<polygon fill="#427476" points="16.1,16.3 16.9,17.3 17.3,16.9 16.5,16  "/>
	<polygon fill="#427577" points="17.3,16.9 17.5,16.6 16.7,15.7 16.5,16  "/>
	<polygon fill="#437678" points="17.2,15.2 17.6,15.6 17.3,15.2  "/>
	<polygon fill="#437678" points="17.7,14.8 17.3,15.2 17.6,15.6 18.1,16.1 18.4,15.8  "/>
	<polygon fill="#447779" points="18.8,15.4 18.1,14.5 17.7,14.8 18.4,15.8  "/>
	<polygon fill="#44787A" points="18.9,15.3 18.1,14.4 18.1,14.5 18.8,15.4  "/>
	<polygon fill="#44787A" points="19,13.7 18.7,13.9 19.5,14.8 19.7,14.6  "/>
	<polygon fill="#45797B" points="19,13.7 19.7,14.6 20.1,14.3 19.4,13.3  "/>
	<polygon fill="#45797B" points="20.1,14.3 20.4,14 19.6,13.1 19.4,13.3  "/>
	<polygon fill="#457A7C" points="20.1,12.7 20.4,13 20.2,12.7  "/>
	<polygon fill="#467B7D" points="20.6,12.3 20.2,12.7 20.4,13 20.9,13.6 21.3,13.2  "/>
	<polygon fill="#467B7D" points="20.6,12.3 21.3,13.2 21.8,12.9 21,12  "/>
	<polygon fill="#467C7E" points="21,12 21.8,12.9 21.9,12.8 21.1,11.9  "/>
	<path fill="#487E81" d="M40.4,3.7l0-0.2c-0.1,0-0.2,0.1-0.3,0.3L40.4,3.7z"/>
	<path fill="#487E81" d="M41.1,3.6l1.2-0.1l-0.1-1.1C41.8,2.6,41.4,2.8,41,3L41.1,3.6z"/>
	<polygon fill="#487E81" points="43,3.4 44.2,3.3 44.1,2.1 42.9,2.2  "/>
	<polygon fill="#487E81" points="44.9,3.3 46.1,3.3 46.1,2.1 46.1,2.1 44.9,2.1  "/>
	<polygon fill="#487E81" points="48,2.2 46.8,2.1 46.8,3.3 48,3.4  "/>
	<polygon fill="#487E81" points="50,2.4 48.8,2.2 48.7,3.5 49.9,3.6  "/>
	<polygon fill="#487E81" points="51.9,2.7 50.7,2.5 50.6,3.7 51.7,3.9  "/>
	<polygon fill="#487E81" points="52.7,2.8 52.4,4 53.6,4.3 53.9,3.1  "/>
	<polygon fill="#3B686A" points="6.2,20.8 6.2,20.8 6.2,20.8  "/>
	<path fill="#3B696B" d="M7.1,21.6C7.1,21.6,7.1,21.6,7.1,21.6l0.3-0.3l-0.8-0.9l-0.4,0.4l0,0L7.1,21.6z"/>
	<polygon fill="#3C696B" points="7.4,21.3 7.7,20.9 7,19.9 6.6,20.4  "/>
	<polygon fill="#3C6A6C" points="7.9,20.7 7,19.9 7,19.9 7.7,20.9  "/>
	<polygon fill="#3C6B6C" points="7.7,19.1 7.5,19.3 8.4,20.1 8.5,20.1  "/>
	<polygon fill="#3D6B6D" points="7.7,19.1 8.5,20.1 8.9,19.6 8.1,18.7  "/>
	<polygon fill="#3D6C6E" points="8.9,19.6 9.2,19.3 8.3,18.4 8.1,18.7  "/>
	<polygon fill="#3D6C6E" points="8.8,17.9 9.1,18.1 8.9,17.9  "/>
	<polygon fill="#3E6D6F" points="8.9,17.9 9.1,18.1 9.7,18.7 10,18.4 9.2,17.5  "/>
	<polygon fill="#3E6E70" points="10,18.4 10.4,18 9.6,17.1 9.2,17.5  "/>
	<polygon fill="#3E6E70" points="10.5,17.9 9.7,17 9.6,17.1 10.4,18  "/>
	<polygon fill="#3F6F71" points="10.3,16.3 10.2,16.5 11,17.3 11.1,17.3  "/>
	<polygon fill="#3F7071" points="10.7,15.9 10.3,16.3 11.1,17.3 11.5,16.9  "/>
	<polygon fill="#407072" points="11.5,16.9 11.9,16.5 11.8,16.4 11,15.6 10.7,15.9  "/>
	<polygon fill="#407173" points="11.9,16.5 11.8,16.4 11.9,16.5  "/>
	<polygon fill="#407173" points="11.6,15.1 11.6,15.1 11.6,15.2  "/>
	<polygon fill="#407173" points="12.4,16 12.7,15.7 11.9,14.7 11.6,15.1 11.6,15.2  "/>
	<polygon fill="#417274" points="12.7,15.7 13.1,15.3 12.3,14.4 11.9,14.7  "/>
	<polygon fill="#417375" points="13.1,15.3 13.3,15.1 12.4,14.3 12.3,14.4  "/>
	<polygon fill="#417375" points="13.1,13.6 13,13.8 13.8,14.6 13.9,14.5  "/>
	<polygon fill="#427476" points="13.5,13.2 13.1,13.6 13.9,14.5 14.3,14.2  "/>
	<polygon fill="#427476" points="14.3,14.2 14.7,13.8 13.9,12.9 13.5,13.2  "/>
	<polygon fill="#437678" points="14.7,12.2 14.4,12.4 15.2,13.3 15.5,13.1  "/>
	<polygon fill="#437678" points="14.7,12.2 15.5,13.1 15.9,12.7 15.1,11.8  "/>
	<polygon fill="#447779" points="15.9,12.7 16.1,12.5 15.3,11.6 15.1,11.8  "/>
	<polygon fill="#44787A" points="16,11 15.9,11.2 16.7,12.1 16.8,12  "/>
	<polygon fill="#44787A" points="16.4,10.7 16,11 16.8,12 17.2,11.6  "/>
	<polygon fill="#45797B" points="17.2,11.6 17.6,11.3 16.8,10.4 16.4,10.7  "/>
	<polygon fill="#457A7C" points="17.7,9.7 17.4,9.9 18.1,10.8 18.4,10.6  "/>
	<polygon fill="#467B7D" points="18.1,9.3 17.7,9.7 18.4,10.6 18.9,10.3  "/>
	<polygon fill="#467B7D" points="18.1,9.3 18.9,10.3 19.1,10.1 18.3,9.1  "/>
	<polygon fill="#467C7E" points="18.9,8.7 19.6,9.7 19.8,9.5 19,8.6  "/>
	<path fill="#477D7F" d="M19,8.6l0.8,0.9l0.1,0c-0.1-0.1-0.2-0.3-0.3-0.4c-0.1-0.2-0.3-0.4-0.4-0.6L19,8.6z"/>
	<path fill="#487E81" d="M47.3,0.3L47.3,0.3c-0.3,0.1-0.7,0.2-1,0.3c-0.1,0-0.2,0.1-0.3,0.1l0,0.2c0.4,0,0.8,0.1,1.2,0.1L47.3,0.3z"/>
	<path fill="#487E81" d="M48,1.1c0.4,0,0.8,0.1,1.2,0.2l0.2-1.2c-0.1,0-0.1,0-0.2,0c-0.3,0-0.7,0.1-1.1,0.1L48,1.1z"/>
	<path fill="#487E81" d="M49.9,1.4c0.4,0.1,0.8,0.1,1.2,0.2l0.3-1.2c-0.4-0.1-0.8-0.2-1.2-0.2L49.9,1.4z"/>
	<polygon fill="#487E81" points="53,0.9 52,0.6 51.7,1.8 52.9,2.1 53.2,1.1  "/>
	<polygon fill="#487E81" points="53.2,1.1 53.2,0.9 53,0.9  "/>
	<path fill="#487E81" d="M53.7,1.8l-0.1,0.5l0.7,0.2c0,0,0-0.1,0-0.1L53.7,1.8z"/>
	<path fill="#487E81" d="M54.1,1.8c-0.1-0.2-0.2-0.3-0.3-0.5l-0.1,0.5l0.5,0.6C54.2,2.2,54.2,2,54.1,1.8z"/>
	<path fill="#3B686A" d="M3.8,17.9C3.8,17.9,3.8,17.9,3.8,17.9c0,0.3,0,0.7,0.2,1L4.1,19l0.3-0.4L3.8,17.9z"/>
	<path fill="#3B696B" d="M3.8,17.9l0.6,0.7l0.4-0.4l-0.7-0.8L4,17.3l-0.1,0.1C3.8,17.5,3.8,17.7,3.8,17.9z"/>
	<polygon fill="#3C696B" points="4.9,18.1 4.1,17.4 4.8,18.2  "/>
	<polygon fill="#3C6A6C" points="4.5,16.7 5.3,17.5 5.6,17.3 4.8,16.4  "/>
	<polygon fill="#3C6B6C" points="5.6,17.3 5.9,16.9 5.2,16 4.8,16.4  "/>
	<polygon fill="#3D6B6D" points="6.2,16.7 5.3,15.8 5.2,16 5.9,16.9  "/>
	<polygon fill="#3D6C6E" points="6.7,16.1 5.9,15.2 5.8,15.3 6.7,16.2  "/>
	<polygon fill="#3D6C6E" points="7.1,15.7 6.3,14.8 5.9,15.2 6.7,16.1  "/>
	<polygon fill="#3E6D6F" points="7.1,15.7 7.5,15.3 7.2,15 6.6,14.4 6.3,14.8  "/>
	<polygon fill="#3E6E70" points="7.5,15.3 7.2,15 7.5,15.3  "/>
	<polygon fill="#3E6E70" points="7.4,13.7 7.2,13.9 8,14.8 8.2,14.6  "/>
	<polygon fill="#3F6F71" points="7.4,13.7 8.2,14.6 8.6,14.2 7.8,13.3  "/>
	<polygon fill="#3F7071" points="8.6,14.2 8.9,14 8,13.1 7.8,13.3  "/>
	<polygon fill="#407072" points="9.4,13.5 8.6,12.5 8.6,12.6 9.4,13.5  "/>
	<polygon fill="#407173" points="9.8,13.1 9,12.2 8.6,12.5 9.4,13.5  "/>
	<polygon fill="#407173" points="9.8,13.1 10.2,12.7 9.4,11.8 9,12.2  "/>
	<polygon fill="#417274" points="10.3,12.6 9.4,11.8 9.4,11.8 10.2,12.7  "/>
	<polygon fill="#417375" points="10.3,11 10,11.3 10.8,12.2 11,11.9  "/>
	<polygon fill="#417375" points="10.3,11 11,11.9 11.4,11.6 10.7,10.6  "/>
	<polygon fill="#427476" points="11.4,11.6 11.7,11.4 10.9,10.5 10.7,10.6  "/>
	<polygon fill="#427476" points="11.4,10 12.2,10.9 12.3,10.8 11.5,9.9  "/>
	<polygon fill="#427577" points="11.9,9.6 11.5,9.9 12.3,10.8 12.7,10.5  "/>
	<polygon fill="#437678" points="12.7,10.5 13.1,10.1 12.3,9.2 11.9,9.6  "/>
	<polygon fill="#437678" points="13.1,10.1 12.3,9.2 12.3,9.2 13.1,10.1  "/>
	<polygon fill="#447779" points="13.2,8.5 12.9,8.7 13.7,9.7 14,9.4  "/>
	<polygon fill="#44787A" points="13.2,8.5 14,9.4 14.4,9.1 13.6,8.1  "/>
	<polygon fill="#44787A" points="14.4,9.1 14.6,8.9 13.8,8 13.6,8.1  "/>
	<polygon fill="#45797B" points="15.2,8.5 15.2,8.4 14.5,7.6  "/>
	<polygon fill="#45797B" points="14.8,7.2 14.4,7.5 14.5,7.6 15.2,8.4 15.6,8.1  "/>
	<polygon fill="#457A7C" points="14.8,7.2 15.6,8.1 16,7.8 15.3,6.8  "/>
	<polygon fill="#467B7D" points="16.1,7.7 15.4,6.8 15.3,6.8 16,7.8  "/>
	<polygon fill="#467B7D" points="16.2,6.1 16,6.3 16.7,7.3 17,7.1  "/>
	<polygon fill="#467C7E" points="16.6,5.8 16.2,6.1 17,7.1 17.4,6.8  "/>
	<path fill="#477D7F" d="M16.7,5.8L16.7,5.8l0.7,1l0.1-0.1C17.2,6.3,16.9,6,16.7,5.8C16.7,5.8,16.7,5.8,16.7,5.8z"/>
	<path fill="#3D6C6E" d="M4,12.9c0,0.1,0,0.3-0.1,0.4c0,0.1,0,0.1,0,0.2l0.4-0.4L4,12.9z"/>
	<path fill="#3D6C6E" d="M4.2,13.2l0.4-0.4l-0.5-0.6l0,0c0,0.2,0,0.5,0,0.8L4.2,13.2z"/>
	<polygon fill="#3E6D6F" points="4.7,12.8 4.1,12.2 4.6,12.8  "/>
	<polygon fill="#3E6E70" points="5.2,12.3 5.4,12.1 4.6,11.1 4.3,11.4  "/>
	<polygon fill="#3E6E70" points="5.4,12.1 5.8,11.7 5,10.7 4.6,11.1  "/>
	<polygon fill="#3F6F71" points="6.1,11.4 5.2,10.6 5,10.7 5.8,11.7  "/>
	<polygon fill="#3F7071" points="6.6,10.9 5.8,10 5.8,10.1 6.6,11  "/>
	<polygon fill="#407072" points="7,10.6 6.2,9.6 5.8,10 6.6,10.9  "/>
	<polygon fill="#407173" points="7,10.6 7.4,10.2 6.6,9.3 6.2,9.6  "/>
	<polygon fill="#407173" points="7.5,10.1 6.7,9.2 6.6,9.3 7.4,10.2  "/>
	<polygon fill="#417274" points="7.5,8.6 7.2,8.8 8,9.7 8.2,9.5  "/>
	<polygon fill="#417375" points="7.5,8.6 8.2,9.5 8.6,9.1 7.9,8.2  "/>
	<polygon fill="#417375" points="8.6,9.1 8.9,8.9 8.1,8 7.9,8.2  "/>
	<polygon fill="#427476" points="8.7,7.5 9.5,8.4 9.5,8.4 8.8,7.4  "/>
	<polygon fill="#427476" points="9.2,7.1 8.8,7.4 9.5,8.4 10,8  "/>
	<polygon fill="#427577" points="10,8 10.4,7.7 9.6,6.7 9.2,7.1  "/>
	<polygon fill="#437678" points="10.4,7.7 9.6,6.7 9.6,6.7 10.4,7.7  "/>
	<polygon fill="#437678" points="10.4,6.1 10.2,6.3 11,7.2 11.2,7  "/>
	<polygon fill="#447779" points="10.8,5.8 10.4,6.1 11.2,7 11.6,6.7  "/>
	<polygon fill="#44787A" points="10.8,5.8 11.6,6.7 11.9,6.5 11.2,5.5  "/>
	<polygon fill="#44787A" points="12.5,6 12.5,6 12.3,5.7  "/>
	<polygon fill="#45797B" points="12.2,4.7 11.7,5.1 12.3,5.7 12.5,6 12.9,5.7  "/>
	<polygon fill="#45797B" points="12.6,4.4 12.2,4.7 12.9,5.7 13.4,5.3  "/>
	<polygon fill="#457A7C" points="12.6,4.4 13.4,5.3 13.4,5.3 12.7,4.3  "/>
	<polygon fill="#467B7D" points="13.5,3.8 13.3,3.9 14,4.9 14.3,4.7  "/>
	<path fill="#467B7D" d="M14.2,3.7c-0.1-0.1-0.2-0.2-0.3-0.2l-0.4,0.3l0.8,0.9l0.5-0.3L14.2,3.7z"/>
	<path fill="#467C7E" d="M14.2,3.7l0.5,0.7l0.1-0.1C14.6,4,14.4,3.9,14.2,3.7z"/>
	<polygon fill="#3F6F71" points="3.9,8.6 3.1,7.7 2.9,7.9 3.7,8.8  "/>
	<polygon fill="#3F7071" points="3.9,8.6 4.3,8.2 3.5,7.3 3.1,7.7  "/>
	<polygon fill="#407072" points="4.6,8 3.8,7.1 3.5,7.3 4.3,8.2  "/>
	<polygon fill="#407173" points="4.4,6.6 5.1,7.5 5.2,7.5 4.4,6.5  "/>
	<polygon fill="#407173" points="4.4,6.5 5.2,7.5 5.6,7.1 4.8,6.2  "/>
	<polygon fill="#417274" points="5.6,7.1 6,6.7 5.3,5.8 4.8,6.2  "/>
	<polygon fill="#417375" points="6.1,6.7 5.3,5.8 5.3,5.8 6,6.7  "/>
	<polygon fill="#417375" points="6.1,5.1 5.8,5.3 6.6,6.3 6.9,6  "/>
	<polygon fill="#427476" points="6.1,5.1 6.9,6 7.3,5.7 6.5,4.8  "/>
	<polygon fill="#427476" points="7.3,5.7 7.5,5.5 6.8,4.6 6.5,4.8  "/>
	<polygon fill="#427577" points="7.3,4.1 8.1,5.1 8.1,5 7.4,4.1  "/>
	<polygon fill="#437678" points="7.8,3.8 7.4,4.1 8.1,5 8.6,4.7  "/>
	<polygon fill="#437678" points="7.8,3.8 8.6,4.7 9,4.4 8.3,3.4  "/>
	<polygon fill="#447779" points="9,4.3 8.3,3.4 8.3,3.4 9,4.4  "/>
	<polygon fill="#44787A" points="9.2,2.7 8.9,2.9 9.6,3.9 9.9,3.7  "/>
	<polygon fill="#44787A" points="9.6,2.4 9.2,2.7 9.9,3.7 10.4,3.3  "/>
	<polygon fill="#45797B" points="10.4,3.3 10.6,3.2 9.9,2.2 9.6,2.4  "/>
	<polygon fill="#45797B" points="10.5,1.8 11.2,2.8 11.2,2.7 10.5,1.8  "/>
	<path fill="#457A7C" d="M10.5,1.8l0.8,0.9l0.5-0.3L11.3,2c0,0-0.1,0-0.1-0.1c-0.1-0.1-0.3-0.2-0.6-0.3L10.5,1.8z"/>
	<path fill="#467B7D" d="M11.7,2.4l0.2-0.1C11.7,2.1,11.5,2,11.3,2L11.7,2.4z"/>
	<path fill="#3F6F71" d="M1.3,5.4L1,5.1l0,0C1,5.2,1.1,5.2,1.2,5.3C1.2,5.4,1.2,5.4,1.3,5.4z"/>
	<path fill="#3F7071" d="M1.8,6l0.2-0.1L1.1,4.9L1,5.1l0.3,0.4C1.5,5.6,1.6,5.8,1.8,6z"/>
	<polygon fill="#407072" points="1.8,4.4 1.7,4.5 2.5,5.4 2.6,5.3  "/>
	<polygon fill="#407173" points="2.6,5.3 3,5 2.2,4 1.8,4.4  "/>
	<polygon fill="#407173" points="3,5 3.4,4.6 2.6,3.7 2.2,4  "/>
	<polygon fill="#417375" points="3.6,2.9 3.2,3.2 4,4.2 4.4,3.9  "/>
	<polygon fill="#417375" points="3.6,2.9 4.4,3.9 4.8,3.5 4,2.6  "/>
	<polygon fill="#427476" points="4.8,3.5 4.9,3.4 4.2,2.5 4,2.6  "/>
	<polygon fill="#427476" points="4.7,2 5.5,3 5.6,2.9 4.8,2  "/>
	<polygon fill="#427577" points="5.3,1.6 4.8,2 5.6,2.9 6,2.6  "/>
	<polygon fill="#437678" points="5.3,1.6 6,2.6 6.4,2.3 6,1.7 5.7,1.3  "/>
	<polygon fill="#437678" points="5.7,1.3 5.7,1.3 6,1.7  "/>
	<polygon fill="#447779" points="6.6,0.7 6.3,0.9 7,1.8 7.3,1.6  "/>
	<path fill="#44787A" d="M6.6,0.7l0.8,0.9l0.5-0.3L7,0.4c0,0,0,0,0,0L6.6,0.7z"/>
	<path fill="#44787A" d="M7.8,1.3L8,1.1L7.6,0.5C7.4,0.5,7.2,0.4,7,0.4L7.8,1.3z"/>
	<path fill="#3F7071" d="M0.1,3.3L0.1,3.3L0.1,3.3C0.1,3.2,0.1,3.2,0.1,3.3z"/>
	<path fill="#407072" d="M0.1,3.2L0.1,3.2l0.4-0.3L0,2.2v0.5C0,2.9,0.1,3.1,0.1,3.2z"/>
	<path fill="#407173" d="M0.7,2.8L0,2c0,0,0,0.1,0,0.1v0.1L0.7,2.8L0.7,2.8z"/>
	<polygon fill="#407173" points="0.7,1.2 0.5,1.4 1.2,2.4 1.5,2.2  "/>
	<polygon fill="#417274" points="1.1,0.9 0.7,1.2 1.5,2.2 1.9,1.8  "/>
	<polygon fill="#417375" points="1.9,1.8 2.2,1.6 1.4,0.7 1.1,0.9  "/>
	<path fill="#417375" d="M2,0.3l0.7,0.9l0.1,0L2,0.3C2.1,0.3,2,0.3,2,0.3z"/>
	<path fill="#427476" d="M2.8,1.2l0.4-0.3L2.7,0.1c-0.2,0-0.4,0.1-0.6,0.1L2.8,1.2z"/>
	<path fill="#427476" d="M3.2,0.8l0.4-0.3L3.3,0C3.1,0,2.9,0.1,2.7,0.1L3.2,0.8z"/>
	<path fill="#427577" d="M3.7,0.5L3.4,0c0,0,0,0-0.1,0L3.7,0.5L3.7,0.5z"/>
	<path fill="#437678" d="M4.2,0L4.2,0l0.1,0C4.3,0,4.3,0,4.2,0z"/>
</g>
</svg>