<svg xmlns="http://www.w3.org/2000/svg" xmlns:xlink="http://www.w3.org/1999/xlink" version="1.1" x="0" y="0" width="94" height="26" viewBox="0 0 94 26" enable-background="new 0 0 94 26" xml:space="preserve">
  <path fill="#ffffff" d="M31.9 0 71.9 0h5.2v4.4h-5.2V0zM71.9 6.6v19.2h5.2V10.4h2.2v11.8c0 0 0 3.4 2.9 3.7 1.5 0.2 2.9 0.2 4.4 0v-3.7c0 0-2 1.1-2.2-2.2 -0.2-3.3 0-9.6 0-9.6h2.9V6.6h-2.9V0h-5.2v6.6H71.9zM88.1 0H94l-0.7 18.5h-4.5L88.1 0zM88.8 20.7h4.4v5.2h-4.4V20.7zM31.9 0 31.9 0 42 26c-3.7 0-7.2-1.1-10.1-2.9 0.5 0.1 1 0.1 1.6 0.1 3.1 0 5.9-1 8.2-2.8 -2.9-0.1-5.3-2-6.1-4.6 0.4 0.1 0.8 0.1 1.2 0.1 0.6 0 1.2-0.1 1.7-0.2 -3-0.6-5.3-3.3-5.3-6.4V9.2c0.9 0.5 1.9 0.8 3 0.8 -1.8-1.2-3-3.2-3-5.5 0-1.2 0.3-2.3 0.9-3.3 3.2 4 8.1 6.6 13.5 6.9 -0.1-0.5-0.2-1-0.2-1.5C47.4 3 50.3 0 54 0c1.9 0 3.6 0.8 4.8 2.1 1.5-0.3 2.9-0.8 4.2-1.6 -0.5 1.5-1.5 2.8-2.9 3.6 1.3-0.2 2.6-0.5 3.8-1 -0.9 1.3-2 2.5-3.3 3.4 0 0.3 0 0.6 0 0.8C60.6 16 54 26 42 26M10.7 26V14.1h4l0.6-4.6h-4.6v-3c0-1.3 0.4-2.2 2.3-2.2h2.4V0.2C15 0.1 13.5 0 11.8 0 8.3 0 5.9 2.2 5.9 6.1v3.4h-4v4.6h4V26H10.7z"/>
</svg>
